<?xml version="1.0" encoding="UTF-8" standalone="no"?>
<!-- Generator: Adobe Illustrator 16.0.0, SVG Export Plug-In . SVG Version: 6.00 Build 0)  -->

<svg
   xmlns:dc="http://purl.org/dc/elements/1.1/"
   xmlns:cc="http://creativecommons.org/ns#"
   xmlns:rdf="http://www.w3.org/1999/02/22-rdf-syntax-ns#"
   xmlns:svg="http://www.w3.org/2000/svg"
   xmlns="http://www.w3.org/2000/svg"
   xmlns:sodipodi="http://sodipodi.sourceforge.net/DTD/sodipodi-0.dtd"
   xmlns:inkscape="http://www.inkscape.org/namespaces/inkscape"
   version="1.1"
   id="Layer_1"
   x="0px"
   y="0px"
   width="121.49153"
   height="114.98305"
   viewBox="0 0 121.49153 114.98305"
   enable-background="new 0 0 512 512"
   xml:space="preserve"
   inkscape:version="0.48.4 r9939"
   sodipodi:docname="calendar.svg"><metadata
     id="metadata9"><rdf:RDF><cc:Work
         rdf:about=""><dc:format>image/svg+xml</dc:format><dc:type
           rdf:resource="http://purl.org/dc/dcmitype/StillImage" /></cc:Work></rdf:RDF></metadata><defs
     id="defs7" /><sodipodi:namedview
     pagecolor="#ffffff"
     bordercolor="#666666"
     borderopacity="1"
     objecttolerance="10"
     gridtolerance="10"
     guidetolerance="10"
     inkscape:pageopacity="0"
     inkscape:pageshadow="2"
     inkscape:window-width="640"
     inkscape:window-height="480"
     id="namedview5"
     showgrid="false"
     fit-margin-top="0"
     fit-margin-left="0"
     fit-margin-right="0"
     fit-margin-bottom="0"
     inkscape:zoom="0.4609375"
     inkscape:cx="256"
     inkscape:cy="-141.01695"
     inkscape:window-x="0"
     inkscape:window-y="27"
     inkscape:window-maximized="0"
     inkscape:current-layer="Layer_1" /><path
     d="M 75.932202,14.372881 H 45.559321 V 7.1864407 h 30.372881 v 7.1864403 z m 45.559328,7.186441 v 79.050848 c 0,7.93742 -6.79973,14.37288 -15.18645,14.37288 H 15.18644 C 6.7997281,114.98305 -6.8603516e-7,108.54759 -6.8603516e-7,100.61017 V 21.559322 C -6.8603516e-7,13.621898 6.7997281,7.1864407 15.18644,7.1864407 v 7.1864403 c -4.186,0 -7.5932204,3.228284 -7.5932204,7.186441 V 35.932203 H 113.89831 V 21.559322 c 0,-3.958157 -3.40367,-7.186441 -7.59323,-7.186441 V 7.1864407 c 8.38672,0 15.18645,6.4354573 15.18645,14.3728813 z M 30.37288,89.830508 H 7.5932196 v 10.779662 c 0,3.96512 3.4072204,7.18644 7.5932204,7.18644 H 30.37288 V 89.830508 z m 0,-21.559322 H 7.5932196 V 82.644068 H 30.37288 V 68.271186 z m 0,-25.152542 H 7.5932196 V 61.084746 H 30.37288 V 43.118644 z M 56.949152,89.830508 H 37.966101 V 107.79661 H 56.949152 V 89.830508 z m 0,-21.559322 H 37.966101 V 82.644068 H 56.949152 V 68.271186 z m 0,-25.152542 H 37.966101 V 61.084746 H 56.949152 V 43.118644 z M 83.525423,89.830508 H 64.542372 V 107.79661 H 83.525423 V 89.830508 z m 0,-21.559322 H 64.542372 V 82.644068 H 83.525423 V 68.271186 z m 0,-25.152542 H 64.542372 V 61.084746 H 83.525423 V 43.118644 z M 113.89831,89.830508 H 91.118643 v 17.966102 h 15.186437 c 4.18956,0 7.59323,-3.22132 7.59323,-7.18644 V 89.830508 z m 0,-21.559322 H 91.118643 V 82.644068 H 113.89831 V 68.271186 z m 0,-25.152542 H 91.118643 V 61.084746 H 113.89831 V 43.118644 z M 26.57627,21.559322 h 7.593221 c 2.098576,0 3.79661,-1.607068 3.79661,-3.59322 V 3.5932203 C 37.966101,1.6070678 36.268067,0 34.169491,0 H 26.57627 C 24.477694,0 22.77966,1.6070678 22.77966,3.5932203 V 17.966102 c 0,1.986152 1.698034,3.59322 3.79661,3.59322 z m 60.745763,0 h 7.59322 c 2.098577,0 3.79661,-1.607068 3.79661,-3.59322 V 3.5932203 C 98.711863,1.6070678 97.01383,0 94.915253,0 h -7.59322 c -2.098576,0 -3.79661,1.6070678 -3.79661,3.5932203 V 17.966102 c 0,1.986152 1.698034,3.59322 3.79661,3.59322 z"
     id="path3"
     inkscape:connector-curvature="0" /></svg>