<?xml version="1.0" encoding="UTF-8" standalone="no"?>
<svg
   xmlns:dc="http://purl.org/dc/elements/1.1/"
   xmlns:cc="http://creativecommons.org/ns#"
   xmlns:rdf="http://www.w3.org/1999/02/22-rdf-syntax-ns#"
   xmlns:svg="http://www.w3.org/2000/svg"
   xmlns="http://www.w3.org/2000/svg"
   xmlns:sodipodi="http://sodipodi.sourceforge.net/DTD/sodipodi-0.dtd"
   xmlns:inkscape="http://www.inkscape.org/namespaces/inkscape"
   height="111.22881"
   width="112.88136"
   id="svg2"
   version="1.1"
   inkscape:version="0.48.4 r9939"
   sodipodi:docname="contacts.svg">
  <metadata
     id="metadata10">
    <rdf:RDF>
      <cc:Work
         rdf:about="">
        <dc:format>image/svg+xml</dc:format>
        <dc:type
           rdf:resource="http://purl.org/dc/dcmitype/StillImage" />
      </cc:Work>
    </rdf:RDF>
  </metadata>
  <defs
     id="defs8" />
  <sodipodi:namedview
     pagecolor="#ffffff"
     bordercolor="#666666"
     borderopacity="1"
     objecttolerance="10"
     gridtolerance="10"
     guidetolerance="10"
     inkscape:pageopacity="0"
     inkscape:pageshadow="2"
     inkscape:window-width="640"
     inkscape:window-height="480"
     id="namedview6"
     showgrid="false"
     fit-margin-top="0"
     fit-margin-left="0"
     fit-margin-right="0"
     fit-margin-bottom="0"
     inkscape:zoom="0.236"
     inkscape:cx="495"
     inkscape:cy="-357.7712"
     inkscape:window-x="0"
     inkscape:window-y="27"
     inkscape:window-maximized="0"
     inkscape:current-layer="svg2" />
  <path
     d="m 95.065489,0 q 7.411401,0 12.613631,5.4131355 5.20224,5.4131345 5.20224,13.1249995 l 0,74.152541 q 0,7.711864 -5.20224,13.125004 -5.20223,5.41313 -12.613631,5.41313 l -65.419881,0 q -7.411401,0 -12.613635,-5.41313 -5.202234,-5.41314 -5.202234,-13.125004 l 0,-6.228815 -5.8436066,0 q -2.422958,0 -4.2045453,-1.779652 Q 0,82.90254 0,80.381357 0,77.860172 1.7815871,76.006356 3.5631744,74.152538 5.9861324,74.152538 l 5.8436066,0 0,-12.309319 -5.8436066,0 q -2.422958,0 -4.2045453,-1.853812 Q 0,58.135591 0,55.614405 0,53.093219 1.7815871,51.239404 3.5631744,49.385593 5.9861324,49.385593 l 5.8436066,0 0,-12.309324 -5.8436066,0 q -2.422958,0 -4.2045453,-1.853811 Q 0,33.368642 0,30.847457 0,28.326271 1.7815871,26.546608 3.5631744,24.766947 5.9861324,24.766947 l 5.8436066,0 0,-6.228812 q 0,-7.711865 5.202234,-13.1249995 Q 22.234207,0 29.645608,0 l 65.419881,0 z m -71.263485,18.538135 0,6.228812 5.843604,0 0,-12.457625 q -2.422957,0 -4.133281,1.853814 -1.710323,1.853813 -1.710323,4.374999 z m 0,18.538134 0,12.309324 5.843604,0 0,-12.309324 -5.843604,0 z m 0,24.76695 0,12.309319 5.843604,0 0,-12.309319 -5.843604,0 z m 0,30.847457 q 0,2.521189 1.710323,4.375003 1.710324,1.853814 4.133281,1.853814 l 0,-12.457632 -5.843604,0 0,6.228815 z m 77.107096,0 0,-74.152541 q 0,-2.521186 -1.710328,-4.374999 -1.710331,-1.853814 -4.133283,-1.853814 l -59.433745,0 0,86.610171 59.433745,0 q 2.422952,0 4.133283,-1.853814 1.710328,-1.853814 1.710328,-4.375003 z M 53.44761,46.419491 q 0,-12.457627 11.829739,-12.457627 11.972268,0 11.972268,12.457627 0,12.30932 -11.972268,12.30932 -11.829739,0 -11.829739,-12.30932 z m 11.829739,17.499996 q 6.413715,0 10.618257,2.669495 4.204548,2.669488 4.204548,6.22881 0,1.779666 -4.275813,3.114409 -4.275797,1.334744 -10.546992,1.334744 -6.698764,0 -10.760786,-1.334744 -4.062018,-1.334743 -4.062018,-3.114409 0,-3.559322 4.062018,-6.22881 4.062022,-2.669495 10.760786,-2.669495 z"
     id="path4"
     inkscape:connector-curvature="0" />
</svg>
